<svg width="32px" height="32px" xmlns="http://www.w3.org/2000/svg" xmlns:xlink="http://www.w3.org/1999/xlink" viewBox="0 0 512 512"><defs><style>.cls-1{fill:url(#linear-gradient);}.cls-2{fill:url(#linear-gradient-2);}.cls-3{fill:url(#linear-gradient-3);}.cls-4,.cls-5{fill:#fff;}.cls-4{fill-opacity:0.59;}</style><linearGradient id="linear-gradient" x1="521.02" y1="-379.18" x2="521.02" y2="-1352.59" gradientTransform="matrix(0.5, 0, 0, -0.34, -6.45, 24.43)" gradientUnits="userSpaceOnUse"><stop offset="0" stop-color="#5c24ae"/><stop offset="1" stop-color="#30135a"/></linearGradient><linearGradient id="linear-gradient-2" x1="521.02" y1="-27.91" x2="521.02" y2="-1169.75" gradientTransform="matrix(0.5, 0, 0, -0.34, -6.45, 24.43)" gradientUnits="userSpaceOnUse"><stop offset="0" stop-color="#7331d4"/><stop offset="1" stop-color="#461b84"/></linearGradient><linearGradient id="linear-gradient-3" x1="521.02" y1="-13.5" x2="521.02" y2="-986.91" gradientTransform="matrix(0.5, 0, 0, -0.34, -6.45, 24.43)" gradientUnits="userSpaceOnUse"><stop offset="0" stop-color="#905bdd"/><stop offset="1" stop-color="#5521a0"/></linearGradient></defs><g id="use45"><path id="b" d="M210.8,165.41,29.53,287.22c-24.92,16.75-24.92,44.16,0,60.91L210.8,470c24.92,16.75,65.71,16.75,90.63,0L482.7,348.13c24.92-16.75,24.92-44.16,0-60.91L301.43,165.41c-24.92-16.75-65.71-16.75-90.63,0Z"/></g><g id="use47"><path id="b-2" data-name="b" class="cls-1" d="M210.8,165.41,29.53,287.22c-24.92,16.75-24.92,44.16,0,60.91L210.8,470c24.92,16.75,65.71,16.75,90.63,0L482.7,348.13c24.92-16.75,24.92-44.16,0-60.91L301.43,165.41c-24.92-16.75-65.71-16.75-90.63,0Z"/></g><g id="use51"><path id="e" d="M210.8,103.49,29.53,225.3c-24.92,16.75-24.92,44.16,0,60.91L210.8,408c24.92,16.75,65.71,16.75,90.63,0L482.7,286.21c24.92-16.75,24.92-44.16,0-60.91L301.43,103.49c-24.92-16.75-65.71-16.75-90.63,0Z"/></g><g id="use53"><path id="e-2" data-name="e" class="cls-2" d="M210.8,103.49,29.53,225.3c-24.92,16.75-24.92,44.16,0,60.91L210.8,408c24.92,16.75,65.71,16.75,90.63,0L482.7,286.21c24.92-16.75,24.92-44.16,0-60.91L301.43,103.49c-24.92-16.75-65.71-16.75-90.63,0Z"/></g><path id="h" d="M210.8,41.56,29.53,163.38c-24.92,16.75-24.92,44.16,0,60.91L210.8,346.1c24.92,16.75,65.71,16.75,90.63,0L482.7,224.29c24.92-16.75,24.92-44.16,0-60.91L301.43,41.56c-24.92-16.75-65.71-16.75-90.63,0Z"/><path id="h-2" data-name="h" class="cls-3" d="M210.8,41.56,29.53,163.38c-24.92,16.75-24.92,44.16,0,60.91L210.8,346.1c24.92,16.75,65.71,16.75,90.63,0L482.7,224.29c24.92-16.75,24.92-44.16,0-60.91L301.43,41.56c-24.92-16.75-65.71-16.75-90.63,0Z"/><path id="path2-3-8" class="cls-4" d="M123.25,107.78c11.05,12.09,9.7,30.71,8.23,50.87-2.35,32.32-5.24,72.16,38.58,102.56,56.07,38.89,149.81,35.56,200-7.49,46.39-39.81,32.72-95.27-23.19-123.94-44.13-22.64-97-20.31-143.31-18.27-30.84,1.5-60.13,2.65-80.29-3.73h0m23,13.6c16.06,1.47,35.46,1.12,65-.38,41.08-1.79,87.94-3.84,126.81,16.44,48.83,25.47,59.85,74.09,19,108.55-43.77,36.89-124.69,39.82-173.63,6.57C144.68,226.3,146.53,191.5,148,163c1-17.91,1.22-32-1.79-41.61h0"/><path id="path63" class="cls-5" d="M283.59,247.88l-98.52-66.21,38.58-25.93c16.86-11.33,38.1-12.39,52.85-2.48,10.25,6.89,12.29,18.35,4.51,25.88l.54.36c15.09-7.84,33.12-7.29,46.22,1.52C345.11,192.67,343,208,322,222ZM239.82,202l19.67-13.21c14.54-9.78,16.66-19,6-26.17-9.76-6.56-21.85-5.69-33.8,2.35L208.2,180.7Zm69.51,14c14.81-10,16.59-19.22,5.2-26.88s-25.27-6.15-41,4.4l-23.14,15.56L285,232.33Z"/></svg>
